<mxfile host="www.draw.io" modified="2019-12-26T07:57:13.178Z" agent="Mozilla/5.0 (Windows NT 6.2; Win64; x64) AppleWebKit/537.36 (KHTML, like Gecko) Chrome/79.0.3945.88 Safari/537.36" etag="IkE5KrcaE6999E0o58rQ" version="12.4.3" type="github" pages="1">
  <diagram name="Page-1" id="13e1069c-82ec-6db2-03f1-153e76fe0fe0">
    <mxGraphModel dx="1873" dy="427" grid="1" gridSize="10" guides="1" tooltips="1" connect="1" arrows="1" fold="1" page="1" pageScale="1" pageWidth="1100" pageHeight="850" background="#ffffff" math="0" shadow="0">
      <root>
        <mxCell id="0"/>
        <mxCell id="1" parent="0"/>
        <mxCell id="SCf--bu4-dqeZi4qSqdn-31" value="opt" style="shape=umlFrame;whiteSpace=wrap;html=1;" vertex="1" parent="1">
          <mxGeometry x="230" y="131" width="390" height="79" as="geometry"/>
        </mxCell>
        <mxCell id="SCf--bu4-dqeZi4qSqdn-1" value="Par" style="shape=umlFrame;whiteSpace=wrap;html=1;" vertex="1" parent="1">
          <mxGeometry x="230" y="220" width="280" height="235" as="geometry"/>
        </mxCell>
        <mxCell id="7baba1c4bc27f4b0-2" value=":xp-sales-im&lt;br&gt;(销售IM)" style="shape=umlLifeline;perimeter=lifelinePerimeter;whiteSpace=wrap;html=1;container=1;collapsible=0;recursiveResize=0;outlineConnect=0;rounded=1;shadow=0;comic=0;labelBackgroundColor=none;strokeWidth=1;fontFamily=Verdana;fontSize=12;align=center;fillColor=#ffe6cc;strokeColor=#d79b00;" parent="1" vertex="1">
          <mxGeometry x="240" y="80" width="100" height="440" as="geometry"/>
        </mxCell>
        <mxCell id="SCf--bu4-dqeZi4qSqdn-6" value="" style="html=1;points=[];perimeter=orthogonalPerimeter;rounded=0;shadow=0;comic=0;labelBackgroundColor=none;strokeWidth=1;fontFamily=Verdana;fontSize=12;align=center;fillColor=#dae8fc;strokeColor=#6c8ebf;" vertex="1" parent="7baba1c4bc27f4b0-2">
          <mxGeometry x="45" y="60" width="10" height="281" as="geometry"/>
        </mxCell>
        <mxCell id="7baba1c4bc27f4b0-3" value=":销售系统" style="shape=umlLifeline;perimeter=lifelinePerimeter;whiteSpace=wrap;html=1;container=1;collapsible=0;recursiveResize=0;outlineConnect=0;rounded=1;shadow=0;comic=0;labelBackgroundColor=none;strokeWidth=1;fontFamily=Verdana;fontSize=12;align=center;fillColor=#ffe6cc;strokeColor=#d79b00;" parent="1" vertex="1">
          <mxGeometry x="400" y="80" width="100" height="440" as="geometry"/>
        </mxCell>
        <mxCell id="7baba1c4bc27f4b0-13" value="" style="html=1;points=[];perimeter=orthogonalPerimeter;rounded=0;shadow=0;comic=0;labelBackgroundColor=none;strokeWidth=1;fontFamily=Verdana;fontSize=12;align=center;fillColor=#dae8fc;strokeColor=#6c8ebf;" parent="7baba1c4bc27f4b0-3" vertex="1">
          <mxGeometry x="45" y="151" width="10" height="60" as="geometry"/>
        </mxCell>
        <mxCell id="7baba1c4bc27f4b0-4" value=":xp-vsn-im&lt;br&gt;(对接云信im&lt;br&gt;服务器)" style="shape=umlLifeline;perimeter=lifelinePerimeter;whiteSpace=wrap;html=1;container=1;collapsible=0;recursiveResize=0;outlineConnect=0;rounded=1;shadow=0;comic=0;labelBackgroundColor=none;strokeWidth=1;fontFamily=Verdana;fontSize=12;align=center;fillColor=#ffe6cc;strokeColor=#d79b00;" parent="1" vertex="1">
          <mxGeometry x="540" y="80" width="100" height="440" as="geometry"/>
        </mxCell>
        <mxCell id="7baba1c4bc27f4b0-16" value="" style="html=1;points=[];perimeter=orthogonalPerimeter;rounded=0;shadow=0;comic=0;labelBackgroundColor=none;strokeWidth=1;fontFamily=Verdana;fontSize=12;align=center;fillColor=#dae8fc;strokeColor=#6c8ebf;" parent="7baba1c4bc27f4b0-4" vertex="1">
          <mxGeometry x="45" y="60" width="10" height="61" as="geometry"/>
        </mxCell>
        <mxCell id="7baba1c4bc27f4b0-5" value=":DB" style="shape=umlLifeline;perimeter=lifelinePerimeter;whiteSpace=wrap;html=1;container=1;collapsible=0;recursiveResize=0;outlineConnect=0;rounded=1;shadow=0;comic=0;labelBackgroundColor=none;strokeWidth=1;fontFamily=Verdana;fontSize=12;align=center;fillColor=#ffe6cc;strokeColor=#d79b00;" parent="1" vertex="1">
          <mxGeometry x="680" y="80" width="100" height="440" as="geometry"/>
        </mxCell>
        <mxCell id="7baba1c4bc27f4b0-8" value=":社区&lt;br&gt;(RN)" style="shape=umlLifeline;perimeter=lifelinePerimeter;whiteSpace=wrap;html=1;container=1;collapsible=0;recursiveResize=0;outlineConnect=0;rounded=1;shadow=0;comic=0;labelBackgroundColor=none;strokeWidth=1;fontFamily=Verdana;fontSize=12;align=center;fillColor=#ffe6cc;strokeColor=#d79b00;" parent="1" vertex="1">
          <mxGeometry x="100" y="80" width="100" height="440" as="geometry"/>
        </mxCell>
        <mxCell id="7baba1c4bc27f4b0-9" value="" style="html=1;points=[];perimeter=orthogonalPerimeter;rounded=0;shadow=0;comic=0;labelBackgroundColor=none;strokeWidth=1;fontFamily=Verdana;fontSize=12;align=center;fillColor=#dae8fc;strokeColor=#6c8ebf;" parent="7baba1c4bc27f4b0-8" vertex="1">
          <mxGeometry x="45" y="60" width="10" height="320" as="geometry"/>
        </mxCell>
        <mxCell id="7baba1c4bc27f4b0-19" value="" style="html=1;points=[];perimeter=orthogonalPerimeter;rounded=0;shadow=0;comic=0;labelBackgroundColor=none;strokeWidth=1;fontFamily=Verdana;fontSize=12;align=center;fillColor=#dae8fc;strokeColor=#6c8ebf;" parent="1" vertex="1">
          <mxGeometry x="725" y="260" width="10" height="60" as="geometry"/>
        </mxCell>
        <mxCell id="_tAtlndqi4DHkHifaJOw-4" value="返回销售信息" style="html=1;verticalAlign=bottom;endArrow=open;dashed=1;endSize=8;labelBackgroundColor=none;fontFamily=Verdana;fontSize=12;edgeStyle=elbowEdgeStyle;elbow=vertical;" parent="1" edge="1">
          <mxGeometry relative="1" as="geometry">
            <mxPoint x="300" y="278" as="targetPoint"/>
            <Array as="points">
              <mxPoint x="378" y="278"/>
              <mxPoint x="408" y="278"/>
            </Array>
            <mxPoint x="440" y="278" as="sourcePoint"/>
          </mxGeometry>
        </mxCell>
        <mxCell id="ZvRYTC18ovLtI7Ebb16t-18" value="初始化会话" style="html=1;verticalAlign=bottom;endArrow=block;labelBackgroundColor=none;fontFamily=Verdana;fontSize=12;elbow=vertical;edgeStyle=orthogonalEdgeStyle;curved=1;entryX=1;entryY=0.286;entryPerimeter=0;exitX=1.038;exitY=0.345;exitPerimeter=0;" parent="1" edge="1">
          <mxGeometry relative="1" as="geometry">
            <mxPoint x="157" y="382" as="sourcePoint"/>
            <mxPoint x="162" y="420" as="targetPoint"/>
            <Array as="points">
              <mxPoint x="212" y="382"/>
              <mxPoint x="212" y="420"/>
            </Array>
          </mxGeometry>
        </mxCell>
        <mxCell id="ZvRYTC18ovLtI7Ebb16t-20" value="" style="html=1;points=[];perimeter=orthogonalPerimeter;rounded=0;shadow=0;comic=0;labelBackgroundColor=none;strokeWidth=1;fontFamily=Verdana;fontSize=12;align=center;fillColor=#dae8fc;strokeColor=#6c8ebf;" parent="1" vertex="1">
          <mxGeometry x="152" y="400" width="10" height="70" as="geometry"/>
        </mxCell>
        <mxCell id="ZvRYTC18ovLtI7Ebb16t-30" value=":云信(JSSDK)" style="shape=umlLifeline;perimeter=lifelinePerimeter;whiteSpace=wrap;html=1;container=1;collapsible=0;recursiveResize=0;outlineConnect=0;rounded=1;shadow=0;comic=0;labelBackgroundColor=none;strokeWidth=1;fontFamily=Verdana;fontSize=12;align=center;" parent="1" vertex="1">
          <mxGeometry x="-47" y="81" width="100" height="440" as="geometry"/>
        </mxCell>
        <mxCell id="ZvRYTC18ovLtI7Ebb16t-31" value="" style="html=1;points=[];perimeter=orthogonalPerimeter;rounded=0;shadow=0;comic=0;labelBackgroundColor=none;strokeWidth=1;fontFamily=Verdana;fontSize=12;align=center;" parent="ZvRYTC18ovLtI7Ebb16t-30" vertex="1">
          <mxGeometry x="45" y="70" width="10" height="310" as="geometry"/>
        </mxCell>
        <mxCell id="SCf--bu4-dqeZi4qSqdn-8" value="" style="endArrow=classic;html=1;entryX=0.133;entryY=0.45;entryDx=0;entryDy=0;entryPerimeter=0;" edge="1" parent="1">
          <mxGeometry width="50" height="50" relative="1" as="geometry">
            <mxPoint x="300" y="252" as="sourcePoint"/>
            <mxPoint x="445.3299999999999" y="252" as="targetPoint"/>
          </mxGeometry>
        </mxCell>
        <mxCell id="SCf--bu4-dqeZi4qSqdn-10" value="获取分配的销售信息" style="text;html=1;strokeColor=none;fillColor=none;align=center;verticalAlign=middle;whiteSpace=wrap;rounded=0;" vertex="1" parent="1">
          <mxGeometry x="340" y="221" width="70" height="20" as="geometry"/>
        </mxCell>
        <mxCell id="SCf--bu4-dqeZi4qSqdn-16" value="" style="html=1;points=[];perimeter=orthogonalPerimeter;rounded=0;shadow=0;comic=0;labelBackgroundColor=none;strokeWidth=1;fontFamily=Verdana;fontSize=12;align=center;fillColor=#dae8fc;strokeColor=#6c8ebf;" vertex="1" parent="1">
          <mxGeometry x="292" y="316" width="10" height="70" as="geometry"/>
        </mxCell>
        <mxCell id="SCf--bu4-dqeZi4qSqdn-17" value="合并会话关联信息" style="html=1;verticalAlign=bottom;endArrow=block;labelBackgroundColor=none;fontFamily=Verdana;fontSize=12;elbow=vertical;edgeStyle=orthogonalEdgeStyle;curved=1;entryX=1;entryY=0.286;entryPerimeter=0;exitX=1.038;exitY=0.345;exitPerimeter=0;" edge="1" parent="1">
          <mxGeometry relative="1" as="geometry">
            <mxPoint x="301" y="316" as="sourcePoint"/>
            <mxPoint x="306" y="354" as="targetPoint"/>
            <Array as="points">
              <mxPoint x="356" y="316"/>
              <mxPoint x="356" y="354"/>
            </Array>
          </mxGeometry>
        </mxCell>
        <mxCell id="SCf--bu4-dqeZi4qSqdn-20" value="" style="endArrow=classic;html=1;" edge="1" parent="1">
          <mxGeometry width="50" height="50" relative="1" as="geometry">
            <mxPoint x="298" y="300" as="sourcePoint"/>
            <mxPoint x="720" y="300" as="targetPoint"/>
          </mxGeometry>
        </mxCell>
        <mxCell id="SCf--bu4-dqeZi4qSqdn-21" value="获取讨论组信息" style="text;html=1;strokeColor=none;fillColor=none;align=center;verticalAlign=middle;whiteSpace=wrap;rounded=0;" vertex="1" parent="1">
          <mxGeometry x="356" y="283" width="90" height="20" as="geometry"/>
        </mxCell>
        <mxCell id="SCf--bu4-dqeZi4qSqdn-22" value="返回会话关联信息" style="html=1;verticalAlign=bottom;endArrow=open;dashed=1;endSize=8;labelBackgroundColor=none;fontFamily=Verdana;fontSize=12;edgeStyle=elbowEdgeStyle;elbow=vertical;" edge="1" parent="1">
          <mxGeometry relative="1" as="geometry">
            <mxPoint x="153" y="376" as="targetPoint"/>
            <Array as="points">
              <mxPoint x="231" y="376"/>
              <mxPoint x="261" y="376"/>
            </Array>
            <mxPoint x="293" y="376" as="sourcePoint"/>
          </mxGeometry>
        </mxCell>
        <mxCell id="SCf--bu4-dqeZi4qSqdn-23" value="获取会话&lt;br&gt;关联信息" style="text;html=1;strokeColor=none;fillColor=none;align=center;verticalAlign=middle;whiteSpace=wrap;rounded=0;" vertex="1" parent="1">
          <mxGeometry x="147" y="131" width="80" height="20" as="geometry"/>
        </mxCell>
        <mxCell id="SCf--bu4-dqeZi4qSqdn-24" value="" style="endArrow=classic;html=1;entryX=0.133;entryY=0.074;entryDx=0;entryDy=0;entryPerimeter=0;" edge="1" parent="1" target="SCf--bu4-dqeZi4qSqdn-6">
          <mxGeometry width="50" height="50" relative="1" as="geometry">
            <mxPoint x="160" y="162" as="sourcePoint"/>
            <mxPoint x="280" y="162" as="targetPoint"/>
          </mxGeometry>
        </mxCell>
        <mxCell id="SCf--bu4-dqeZi4qSqdn-25" value="" style="endArrow=classic;html=1;" edge="1" parent="1" target="7baba1c4bc27f4b0-16">
          <mxGeometry width="50" height="50" relative="1" as="geometry">
            <mxPoint x="292" y="164" as="sourcePoint"/>
            <mxPoint x="580" y="163" as="targetPoint"/>
          </mxGeometry>
        </mxCell>
        <mxCell id="SCf--bu4-dqeZi4qSqdn-26" value="首次发送&lt;br&gt;个人介绍" style="text;html=1;strokeColor=none;fillColor=none;align=center;verticalAlign=middle;whiteSpace=wrap;rounded=0;" vertex="1" parent="1">
          <mxGeometry x="400" y="131" width="80" height="20" as="geometry"/>
        </mxCell>
        <mxCell id="SCf--bu4-dqeZi4qSqdn-27" value="" style="endArrow=classic;html=1;" edge="1" parent="1">
          <mxGeometry width="50" height="50" relative="1" as="geometry">
            <mxPoint x="296" y="194" as="sourcePoint"/>
            <mxPoint x="584" y="193" as="targetPoint"/>
          </mxGeometry>
        </mxCell>
        <mxCell id="SCf--bu4-dqeZi4qSqdn-30" value="首次发送&lt;br&gt;试驾链接" style="text;html=1;strokeColor=none;fillColor=none;align=center;verticalAlign=middle;whiteSpace=wrap;rounded=0;" vertex="1" parent="1">
          <mxGeometry x="400" y="170" width="80" height="20" as="geometry"/>
        </mxCell>
      </root>
    </mxGraphModel>
  </diagram>
</mxfile>
